<svg width="40" height="40" viewBox="0 0 40 40" fill="none" xmlns="http://www.w3.org/2000/svg">
<path d="M35 0H5C2.23858 0 0 2.23858 0 5V35C0 37.7614 2.23858 40 5 40H35C37.7614 40 40 37.7614 40 35V5C40 2.23858 37.7614 0 35 0Z" fill="white"/>
<path d="M11.7497 24.1466C11.7497 24.5333 11.596 24.9043 11.3225 25.1778C11.049 25.4513 10.6781 25.6049 10.2913 25.6049C9.90457 25.6049 9.53363 25.4513 9.26014 25.1778C8.98665 24.9043 8.83301 24.5333 8.83301 24.1466V17.5841C8.83301 17.1973 8.98665 16.8264 9.26014 16.5529C9.53363 16.2794 9.90457 16.1257 10.2913 16.1257C10.6781 16.1257 11.049 16.2794 11.3225 16.5529C11.596 16.8264 11.7497 17.1973 11.7497 17.5841V24.1466Z" fill="#7CB342"/>
<path d="M32.1667 24.1466C32.1667 24.5333 32.013 24.9043 31.7395 25.1778C31.466 25.4513 31.0951 25.6049 30.7083 25.6049C30.3216 25.6049 29.9506 25.4513 29.6771 25.1778C29.4036 24.9043 29.25 24.5333 29.25 24.1466V17.5841C29.25 17.1973 29.4036 16.8264 29.6771 16.5529C29.9506 16.2794 30.3216 16.1257 30.7083 16.1257C31.0951 16.1257 31.466 16.2794 31.7395 16.5529C32.013 16.8264 32.1667 17.1973 32.1667 17.5841V24.1466Z" fill="#7CB342"/>
<path d="M19.0417 32.1666C19.0417 32.5534 18.888 32.9243 18.6145 33.1978C18.341 33.4713 17.9701 33.6249 17.5833 33.6249C17.1966 33.6249 16.8256 33.4713 16.5521 33.1978C16.2786 32.9243 16.125 32.5534 16.125 32.1666V25.6041C16.125 25.2173 16.2786 24.8464 16.5521 24.5729C16.8256 24.2994 17.1966 24.1458 17.5833 24.1458C17.9701 24.1458 18.341 24.2994 18.6145 24.5729C18.888 24.8464 19.0417 25.2173 19.0417 25.6041V32.1666Z" fill="#7CB342"/>
<path d="M24.8747 32.1666C24.8747 32.5534 24.721 32.9243 24.4475 33.1978C24.174 33.4713 23.8031 33.6249 23.4163 33.6249C23.0296 33.6249 22.6586 33.4713 22.3851 33.1978C22.1117 32.9243 21.958 32.5534 21.958 32.1666V25.6041C21.958 25.2173 22.1117 24.8464 22.3851 24.5729C22.6586 24.2994 23.0296 24.1458 23.4163 24.1458C23.8031 24.1458 24.174 24.2994 24.4475 24.5729C24.721 24.8464 24.8747 25.2173 24.8747 25.6041V32.1666Z" fill="#7CB342"/>
<path d="M13.208 16.1257V27.0625C13.208 27.4493 13.3617 27.8202 13.6351 28.0937C13.9086 28.3672 14.2796 28.5208 14.6663 28.5208H26.333C26.7198 28.5208 27.0907 28.3672 27.3642 28.0937C27.6377 27.8202 27.7913 27.4493 27.7913 27.0625V16.1257H13.208Z" fill="#7CB342"/>
<path d="M20.4997 8.83325C16.1247 8.83325 13.4596 11.4911 13.208 14.6666H27.7913C27.539 11.4911 24.8747 8.83325 20.4997 8.83325ZM17.583 12.9151C17.3896 12.9151 17.2042 12.8383 17.0674 12.7016C16.9307 12.5648 16.8538 12.3793 16.8538 12.186C16.8538 11.9926 16.9307 11.8071 17.0674 11.6704C17.2042 11.5336 17.3896 11.4568 17.583 11.4568C17.7764 11.4568 17.9619 11.5336 18.0986 11.6704C18.2354 11.8071 18.3122 11.9926 18.3122 12.186C18.3122 12.3793 18.2354 12.5648 18.0986 12.7016C17.9619 12.8383 17.7764 12.9151 17.583 12.9151ZM23.4163 12.9151C23.223 12.9151 23.0375 12.8383 22.9007 12.7016C22.764 12.5648 22.6872 12.3793 22.6872 12.186C22.6872 11.9926 22.764 11.8071 22.9007 11.6704C23.0375 11.5336 23.223 11.4568 23.4163 11.4568C23.6097 11.4568 23.7952 11.5336 23.9319 11.6704C24.0687 11.8071 24.1455 11.9926 24.1455 12.186C24.1455 12.3793 24.0687 12.5648 23.9319 12.7016C23.7952 12.8383 23.6097 12.9151 23.4163 12.9151Z" fill="#7CB342"/>
<path fill-rule="evenodd" clip-rule="evenodd" d="M25.1522 7.68827C25.382 7.84143 25.4441 8.15187 25.2909 8.38164L24.0762 10.2038C23.9231 10.4336 23.6126 10.4957 23.3829 10.3425C23.1531 10.1894 23.091 9.87893 23.2442 9.64916L24.4589 7.82697C24.612 7.5972 24.9225 7.5351 25.1522 7.68827Z" fill="#7CB342"/>
<path fill-rule="evenodd" clip-rule="evenodd" d="M15.8555 7.68322C16.088 7.53433 16.3972 7.60214 16.5461 7.8347L17.5181 9.35282C17.667 9.58538 17.5992 9.89462 17.3667 10.0435C17.1341 10.1924 16.8249 10.1246 16.676 9.89204L15.704 8.37392C15.5551 8.14136 15.6229 7.83212 15.8555 7.68322Z" fill="#7CB342"/>
</svg>
